name C:\Users\antoi\Documents\MyRepositories\upper-imu-dc\Results\main_tracking\Case_101\kinematics.mot
datacolumns 43
datarows 13
range 3.46000000 3.70000000
endheader 
time	clav_prot	clav_elev	scapula_abduction	scapula_elevation	scapula_upward_rot	scapula_winging	plane_elv	shoulder_elv	axial_rot	TrapeziusScapula_M/activation	TrapeziusScapula_S/activation	TrapeziusScapula_I/activation	TrapeziusClavicle_S/activation	SerratusAnterior_I/activation	SerratusAnterior_M/activation	SerratusAnterior_S/activation	Rhomboideus_S/activation	Rhomboideus_I/activation	LevatorScapulae/activation	Coracobrachialis/activation	DeltoideusClavicle_A/activation	DeltoideusScapula_P/activation	DeltoideusScapula_M/activation	LatissimusDorsi_S/activation	LatissimusDorsi_M/activation	LatissimusDorsi_I/activation	PectoralisMajorClavicle_S/activation	PectoralisMajorThorax_I/activation	PectoralisMajorThorax_M/activation	TeresMajor/activation	Infraspinatus_I/activation	Infraspinatus_S/activation	PectoralisMinor/activation	TeresMinor/activation	Subscapularis_S/activation	Subscapularis_M/activation	Subscapularis_I/activation	Supraspinatus_P/activation	Supraspinatus_A/activation	TRIlong/activation	BIC_long/activation	BIC_brevis/activation	
          3.46000000	        -46.15393339	          2.34022776	         -5.81288817	         -7.07773775	         77.06765759	        -11.48135850	         45.55513336	         93.59437525	        -11.67578502	          0.18604316	          0.20163132	          0.19103827	          0.22695815	          0.19801637	          0.49156466	          0.18559843	          0.16229815	          0.12931347	          0.14155151	          0.15269293	          0.21296867	          0.29733712	          0.19067828	          0.11536072	          0.08250591	          0.08629934	          0.21454589	          0.10097137	          0.20230109	          0.22096510	          0.20468562	          0.22399919	          0.13041985	          0.21179283	          0.18545798	          0.19158313	          0.20534522	          0.18522965	          0.17474259	          0.25353918	          0.18993287	          0.15012117	
          3.48000000	        -46.14862827	          2.37294771	         -5.84741532	         -7.05861017	         77.01969203	        -11.49815941	         45.64768851	         93.58514008	        -11.59432483	          0.18564658	          0.20097622	          0.19095344	          0.22692368	          0.19840475	          0.49106387	          0.18588382	          0.16223238	          0.12921773	          0.14162865	          0.15197033	          0.21202323	          0.29887950	          0.19079287	          0.11563926	          0.08284264	          0.08667151	          0.21385464	          0.10132259	          0.20166177	          0.22135689	          0.20425807	          0.22441113	          0.13086039	          0.21163589	          0.18542443	          0.19166223	          0.20578406	          0.18501930	          0.17435713	          0.25420137	          0.18985835	          0.14937258	
          3.50000000	        -46.13977581	          2.40333519	         -5.87929778	         -7.04121513	         76.96695404	        -11.51209645	         45.73872834	         93.57408950	        -11.51227546	          0.18532270	          0.20034152	          0.19093207	          0.22686570	          0.19886373	          0.49062257	          0.18605868	          0.16214657	          0.12910993	          0.14164739	          0.15126181	          0.21116651	          0.30036129	          0.19098608	          0.11595078	          0.08318949	          0.08703140	          0.21317619	          0.10163527	          0.20102659	          0.22170139	          0.20391001	          0.22484725	          0.13128425	          0.21150241	          0.18537187	          0.19170885	          0.20615346	          0.18482779	          0.17399539	          0.25477418	          0.18979590	          0.14864365	
          3.52000000	        -46.12786469	          2.43073471	         -5.90969689	         -7.02608966	         76.90875286	        -11.52324611	         45.82544701	         93.56163138	        -11.43055063	          0.18508574	          0.19972798	          0.19098997	          0.22678288	          0.19940842	          0.49032649	          0.18609349	          0.16202714	          0.12897207	          0.14158463	          0.15061800	          0.21047301	          0.30164380	          0.19127169	          0.11628743	          0.08353324	          0.08736313	          0.21256398	          0.10190535	          0.20044886	          0.22196796	          0.20364044	          0.22527730	          0.13168118	          0.21137904	          0.18531450	          0.19172933	          0.20644068	          0.18467201	          0.17368503	          0.25518312	          0.18975512	          0.14798834	
          3.54000000	        -46.11341542	          2.45449156	         -5.93961048	         -7.01374834	         76.84468476	        -11.53167646	         45.90580339	         93.54830313	        -11.34982230	          0.18494332	          0.19914202	          0.19113439	          0.22667641	          0.20004536	          0.49023271	          0.18597420	          0.16186695	          0.12879445	          0.14142934	          0.15007246	          0.20998753	          0.30263461	          0.19165572	          0.11664318	          0.08386807	          0.08766138	          0.21205338	          0.10213300	          0.19996366	          0.22213901	          0.20343913	          0.22567942	          0.13204449	          0.21125189	          0.18526509	          0.19173210	          0.20664482	          0.18456242	          0.17344293	          0.25538154	          0.18974212	          0.14744247	
          3.56000000	        -46.09693694	          2.47403796	         -5.96976199	         -7.00461488	         76.77471316	        -11.53745076	         45.97865896	         93.53474729	        -11.27039154	          0.18488350	          0.19858482	          0.19135507	          0.22655243	          0.20076899	          0.49034589	          0.18571924	          0.16167035	          0.12858323	          0.14119374	          0.14964657	          0.20971230	          0.30328838	          0.19211590	          0.11701355	          0.08419790	          0.08793808	          0.21166130	          0.10233192	          0.19958687	          0.22221342	          0.20328816	          0.22603013	          0.13237671	          0.21111239	          0.18523371	          0.19172746	          0.20677578	          0.18450122	          0.17327607	          0.25536284	          0.18975697	          0.14702618	
          3.58000000	        -46.07883671	          2.48895098	         -6.00047919	         -6.99897769	         76.69915417	        -11.54059854	         46.04375033	         93.52166413	        -11.19233946	          0.18487170	          0.19804062	          0.19162542	          0.22641763	          0.20156511	          0.49060414	          0.18537829	          0.16145249	          0.12836117	          0.14091502	          0.14934481	          0.20960286	          0.30361427	          0.19259987	          0.11739587	          0.08453554	          0.08821939	          0.21138246	          0.10253007	          0.19931405	          0.22220834	          0.20316792	          0.22630699	          0.13269058	          0.21096225	          0.18522432	          0.19172453	          0.20685130	          0.18448105	          0.17317970	          0.25516583	          0.18979270	          0.14673865	
          3.60000000	        -46.05929052	          2.49898652	         -6.03157992	         -6.99696726	         76.61855894	        -11.54106129	         46.10151518	         93.50973236	        -11.11595374	          0.18484552	          0.19747103	          0.19190071	          0.22628009	          0.20241153	          0.49086715	          0.18503331	          0.16123712	          0.12815960	          0.14064914	          0.14916438	          0.20958636	          0.30365647	          0.19302354	          0.11779031	          0.08489164	          0.08853095	          0.21120597	          0.10276425	          0.19913414	          0.22215484	          0.20306299	          0.22648010	          0.13300909	          0.21081665	          0.18523520	          0.19173012	          0.20689082	          0.18448788	          0.17314317	          0.25487159	          0.18983678	          0.14656791	
          3.62000000	        -46.03813472	          2.50410679	         -6.06236659	         -6.99854708	         76.53349762	        -11.53865956	         46.15292557	         93.49949190	        -11.04226209	          0.18473564	          0.19684464	          0.19212675	          0.22615722	          0.20327632	          0.49099926	          0.18478088	          0.16105211	          0.12800828	          0.14045131	          0.14910719	          0.20957514	          0.30347049	          0.19329432	          0.11820212	          0.08528305	          0.08890228	          0.21111290	          0.10307615	          0.19902510	          0.22208277	          0.20296750	          0.22651650	          0.13336083	          0.21069846	          0.18526223	          0.19174797	          0.20690613	          0.18450778	          0.17315798	          0.25456863	          0.18987629	          0.14650606	
          3.64000000	        -46.01479871	          2.50445292	         -6.09169135	         -7.00354642	         76.44431972	        -11.53306271	         46.19939160	         93.49121224	        -10.97331863	          0.18447304	          0.19610985	          0.19225732	          0.22605882	          0.20413785	          0.49088258	          0.18470456	          0.16091845	          0.12792710	          0.14036547	          0.14918269	          0.20950386	          0.30308986	          0.19332691	          0.11863156	          0.08571753	          0.08935138	          0.21109557	          0.10349560	          0.19897999	          0.22201533	          0.20288740	          0.22638575	          0.13376959	          0.21063455	          0.18529978	          0.19177791	          0.20689924	          0.18453029	          0.17322160	          0.25433271	          0.18990062	          0.14655222	
          3.66000000	        -45.98825413	          2.50025854	         -6.11801207	         -7.01173202	         76.35094565	        -11.52373906	         46.24273851	         93.48481183	        -10.91211271	          0.18400402	          0.19520982	          0.19226230	          0.22598805	          0.20498539	          0.49045996	          0.18485765	          0.16084714	          0.12792918	          0.14042141	          0.14940297	          0.20934281	          0.30252105	          0.19305728	          0.11907468	          0.08619491	          0.08989014	          0.21116147	          0.10404802	          0.19900794	          0.22196417	          0.20283791	          0.22606127	          0.13425256	          0.21065180	          0.18534168	          0.19181672	          0.20686314	          0.18454920	          0.17333625	          0.25420758	          0.18990312	          0.14670781	
          3.68000000	        -45.95703815	          2.49179154	         -6.13952501	         -7.02285962	         76.25272353	        -11.50995905	         46.28529948	         93.47982596	        -10.86212039	          0.18329735	          0.19411146	          0.19212430	          0.22595088	          0.20581596	          0.48976290	          0.18526830	          0.16084125	          0.12801961	          0.14063094	          0.14978626	          0.20909304	          0.30174436	          0.19245004	          0.11952973	          0.08671862	          0.09052939	          0.21132536	          0.10474739	          0.19912191	          0.22192609	          0.20284101	          0.22552655	          0.13481865	          0.21077170	          0.18538399	          0.19185942	          0.20678155	          0.18456484	          0.17351108	          0.25419952	          0.18988272	          0.14698239	
          3.70000000	        -45.91934476	          2.47935084	         -6.15435317	         -7.03668513	         76.14837405	        -11.49085783	         46.33007435	         93.47542405	        -10.82672488	          0.18233977	          0.19280288	          0.19183557	          0.22595310	          0.20663202	          0.48884284	          0.18594673	          0.16089760	          0.12819246	          0.14099045	          0.15035651	          0.20877356	          0.30072263	          0.19149374	          0.11999042	          0.08728116	          0.09126483	          0.21160517	          0.10559243	          0.19933587	          0.22189101	          0.20291595	          0.22477195	          0.13546667	          0.21100778	          0.18542620	          0.19190217	          0.20663780	          0.18458169	          0.17375873	          0.25429512	          0.18984249	          0.14739422	
